<mxfile host="app.diagrams.net" modified="2024-06-20T05:10:58.400Z" agent="Mozilla/5.0 (Windows NT 10.0; Win64; x64) AppleWebKit/537.36 (KHTML, like Gecko) Chrome/126.0.0.0 Safari/537.36" etag="J-1O-OfAk_e-s4wDppdJ" version="24.5.5" type="github">
  <diagram name="페이지-1" id="-vPtb-DYy9KyF0RIv2EP">
    <mxGraphModel dx="1728" dy="953" grid="1" gridSize="10" guides="1" tooltips="1" connect="1" arrows="1" fold="1" page="1" pageScale="1" pageWidth="1600" pageHeight="900" math="0" shadow="0">
      <root>
        <mxCell id="0" />
        <mxCell id="1" parent="0" />
        <mxCell id="JcGwvd_5RNHxMmRcsmv1-4" value="" style="edgeStyle=orthogonalEdgeStyle;rounded=0;orthogonalLoop=1;jettySize=auto;html=1;entryX=0;entryY=0.5;entryDx=0;entryDy=0;exitX=1;exitY=0.5;exitDx=0;exitDy=0;" parent="1" source="JcGwvd_5RNHxMmRcsmv1-10" target="JcGwvd_5RNHxMmRcsmv1-5" edge="1">
          <mxGeometry relative="1" as="geometry">
            <mxPoint x="160" y="320" as="sourcePoint" />
            <mxPoint x="213.99999999999977" y="358" as="targetPoint" />
          </mxGeometry>
        </mxCell>
        <mxCell id="JcGwvd_5RNHxMmRcsmv1-7" value="NO" style="edgeStyle=orthogonalEdgeStyle;rounded=0;orthogonalLoop=1;jettySize=auto;html=1;exitX=0.5;exitY=1;exitDx=0;exitDy=0;entryX=0;entryY=0.5;entryDx=0;entryDy=0;" parent="1" source="JcGwvd_5RNHxMmRcsmv1-5" target="JcGwvd_5RNHxMmRcsmv1-6" edge="1">
          <mxGeometry relative="1" as="geometry">
            <Array as="points">
              <mxPoint x="260" y="400" />
            </Array>
          </mxGeometry>
        </mxCell>
        <mxCell id="JcGwvd_5RNHxMmRcsmv1-15" value="YES" style="edgeStyle=orthogonalEdgeStyle;rounded=0;orthogonalLoop=1;jettySize=auto;html=1;exitX=0.5;exitY=0;exitDx=0;exitDy=0;entryX=0;entryY=0.5;entryDx=0;entryDy=0;" parent="1" source="JcGwvd_5RNHxMmRcsmv1-5" target="JcGwvd_5RNHxMmRcsmv1-12" edge="1">
          <mxGeometry relative="1" as="geometry" />
        </mxCell>
        <mxCell id="JcGwvd_5RNHxMmRcsmv1-5" value="USB Connected ?" style="rhombus;whiteSpace=wrap;html=1;" parent="1" vertex="1">
          <mxGeometry x="200" y="280" width="120" height="80" as="geometry" />
        </mxCell>
        <mxCell id="JcGwvd_5RNHxMmRcsmv1-6" value="Cannot Find USB." style="rounded=0;whiteSpace=wrap;html=1;fillColor=#f8cecc;strokeColor=#b85450;" parent="1" vertex="1">
          <mxGeometry x="320" y="360" width="120" height="80" as="geometry" />
        </mxCell>
        <mxCell id="JcGwvd_5RNHxMmRcsmv1-10" value="iDTC Log Copy&lt;br&gt;Pressed" style="rounded=0;whiteSpace=wrap;html=1;" parent="1" vertex="1">
          <mxGeometry x="40" y="280" width="120" height="80" as="geometry" />
        </mxCell>
        <mxCell id="JcGwvd_5RNHxMmRcsmv1-26" value="" style="edgeStyle=orthogonalEdgeStyle;rounded=0;orthogonalLoop=1;jettySize=auto;html=1;" parent="1" source="JcGwvd_5RNHxMmRcsmv1-12" target="JcGwvd_5RNHxMmRcsmv1-18" edge="1">
          <mxGeometry relative="1" as="geometry" />
        </mxCell>
        <mxCell id="JcGwvd_5RNHxMmRcsmv1-12" value="&lt;div&gt;&lt;font style=&quot;font-size: 11px;&quot;&gt;Folder created in USB&lt;/font&gt;&lt;/div&gt;" style="rounded=0;whiteSpace=wrap;html=1;" parent="1" vertex="1">
          <mxGeometry x="320" y="200" width="120" height="80" as="geometry" />
        </mxCell>
        <mxCell id="JcGwvd_5RNHxMmRcsmv1-27" value="YES" style="edgeStyle=orthogonalEdgeStyle;rounded=0;orthogonalLoop=1;jettySize=auto;html=1;exitX=0.5;exitY=0;exitDx=0;exitDy=0;entryX=0;entryY=0.5;entryDx=0;entryDy=0;" parent="1" source="JcGwvd_5RNHxMmRcsmv1-18" target="JcGwvd_5RNHxMmRcsmv1-21" edge="1">
          <mxGeometry relative="1" as="geometry" />
        </mxCell>
        <mxCell id="JcGwvd_5RNHxMmRcsmv1-28" value="NO" style="edgeStyle=orthogonalEdgeStyle;rounded=0;orthogonalLoop=1;jettySize=auto;html=1;exitX=0.5;exitY=1;exitDx=0;exitDy=0;entryX=0;entryY=0.5;entryDx=0;entryDy=0;" parent="1" source="JcGwvd_5RNHxMmRcsmv1-18" target="JcGwvd_5RNHxMmRcsmv1-19" edge="1">
          <mxGeometry relative="1" as="geometry" />
        </mxCell>
        <mxCell id="JcGwvd_5RNHxMmRcsmv1-18" value="Logs exist ?" style="rhombus;whiteSpace=wrap;html=1;" parent="1" vertex="1">
          <mxGeometry x="480" y="200" width="120" height="80" as="geometry" />
        </mxCell>
        <mxCell id="JcGwvd_5RNHxMmRcsmv1-19" value="Fail Copy Log File To USB." style="rounded=0;whiteSpace=wrap;html=1;fillColor=#f8cecc;strokeColor=#b85450;" parent="1" vertex="1">
          <mxGeometry x="600" y="280" width="120" height="80" as="geometry" />
        </mxCell>
        <mxCell id="JcGwvd_5RNHxMmRcsmv1-29" value="" style="edgeStyle=orthogonalEdgeStyle;rounded=0;orthogonalLoop=1;jettySize=auto;html=1;" parent="1" source="JcGwvd_5RNHxMmRcsmv1-21" target="JcGwvd_5RNHxMmRcsmv1-23" edge="1">
          <mxGeometry relative="1" as="geometry" />
        </mxCell>
        <mxCell id="JcGwvd_5RNHxMmRcsmv1-21" value="Copy process" style="shape=process;whiteSpace=wrap;html=1;backgroundOutline=1;" parent="1" vertex="1">
          <mxGeometry x="600" y="120" width="120" height="80" as="geometry" />
        </mxCell>
        <mxCell id="JcGwvd_5RNHxMmRcsmv1-30" value="YES" style="edgeStyle=orthogonalEdgeStyle;rounded=0;orthogonalLoop=1;jettySize=auto;html=1;exitX=0.5;exitY=0;exitDx=0;exitDy=0;entryX=0;entryY=0.5;entryDx=0;entryDy=0;" parent="1" source="JcGwvd_5RNHxMmRcsmv1-23" target="JcGwvd_5RNHxMmRcsmv1-25" edge="1">
          <mxGeometry relative="1" as="geometry" />
        </mxCell>
        <mxCell id="JcGwvd_5RNHxMmRcsmv1-31" value="NO" style="edgeStyle=orthogonalEdgeStyle;rounded=0;orthogonalLoop=1;jettySize=auto;html=1;exitX=0.5;exitY=1;exitDx=0;exitDy=0;entryX=0;entryY=0.5;entryDx=0;entryDy=0;" parent="1" source="JcGwvd_5RNHxMmRcsmv1-23" target="JcGwvd_5RNHxMmRcsmv1-24" edge="1">
          <mxGeometry relative="1" as="geometry" />
        </mxCell>
        <mxCell id="JcGwvd_5RNHxMmRcsmv1-23" value="Result Success ?" style="rhombus;whiteSpace=wrap;html=1;" parent="1" vertex="1">
          <mxGeometry x="760" y="120" width="120" height="80" as="geometry" />
        </mxCell>
        <mxCell id="JcGwvd_5RNHxMmRcsmv1-24" value="Fail Copy Log File To USB." style="rounded=0;whiteSpace=wrap;html=1;fillColor=#f8cecc;strokeColor=#b85450;" parent="1" vertex="1">
          <mxGeometry x="880" y="200" width="120" height="80" as="geometry" />
        </mxCell>
        <mxCell id="JcGwvd_5RNHxMmRcsmv1-25" value="Finished Copy Log File To USB." style="rounded=0;whiteSpace=wrap;html=1;fillColor=#d5e8d4;strokeColor=#82b366;" parent="1" vertex="1">
          <mxGeometry x="880" y="40" width="120" height="80" as="geometry" />
        </mxCell>
        <mxCell id="JcGwvd_5RNHxMmRcsmv1-47" value="USB Not Connected&lt;div&gt;Popup&lt;/div&gt;" style="rounded=0;whiteSpace=wrap;html=1;" parent="1" vertex="1">
          <mxGeometry x="80" y="1160" width="120" height="80" as="geometry" />
        </mxCell>
        <mxCell id="JcGwvd_5RNHxMmRcsmv1-68" value="" style="edgeStyle=orthogonalEdgeStyle;rounded=0;orthogonalLoop=1;jettySize=auto;html=1;" parent="1" source="JcGwvd_5RNHxMmRcsmv1-48" target="JcGwvd_5RNHxMmRcsmv1-58" edge="1">
          <mxGeometry relative="1" as="geometry" />
        </mxCell>
        <mxCell id="JcGwvd_5RNHxMmRcsmv1-48" value="iDTC Log Copy&lt;br&gt;Pressed" style="rounded=0;whiteSpace=wrap;html=1;fillColor=#dae8fc;strokeColor=#6c8ebf;" parent="1" vertex="1">
          <mxGeometry x="160" y="960" width="120" height="80" as="geometry" />
        </mxCell>
        <mxCell id="JcGwvd_5RNHxMmRcsmv1-65" value="" style="edgeStyle=orthogonalEdgeStyle;rounded=0;orthogonalLoop=1;jettySize=auto;html=1;" parent="1" source="JcGwvd_5RNHxMmRcsmv1-50" target="JcGwvd_5RNHxMmRcsmv1-59" edge="1">
          <mxGeometry relative="1" as="geometry" />
        </mxCell>
        <mxCell id="JcGwvd_5RNHxMmRcsmv1-50" value="&lt;div&gt;&lt;font style=&quot;font-size: 11px;&quot;&gt;Folder created in USB&lt;/font&gt;&lt;/div&gt;&lt;div&gt;&lt;span style=&quot;font-size: 8px;&quot;&gt;${Timestamp} + &quot;_TMS_LOG&quot;&lt;/span&gt;&lt;br&gt;&lt;/div&gt;" style="rounded=0;whiteSpace=wrap;html=1;fillColor=#dae8fc;strokeColor=#6c8ebf;" parent="1" vertex="1">
          <mxGeometry x="240" y="1160" width="120" height="80" as="geometry" />
        </mxCell>
        <mxCell id="JcGwvd_5RNHxMmRcsmv1-57" value="..." style="text;html=1;align=center;verticalAlign=middle;whiteSpace=wrap;rounded=0;fontStyle=1;fontSize=25;" parent="1" vertex="1">
          <mxGeometry x="340" y="1460" width="80" height="30" as="geometry" />
        </mxCell>
        <mxCell id="JcGwvd_5RNHxMmRcsmv1-66" value="YES" style="edgeStyle=orthogonalEdgeStyle;rounded=0;orthogonalLoop=1;jettySize=auto;html=1;exitX=1;exitY=0.5;exitDx=0;exitDy=0;fontStyle=1;fontColor=#004C99;" parent="1" source="JcGwvd_5RNHxMmRcsmv1-58" target="JcGwvd_5RNHxMmRcsmv1-50" edge="1">
          <mxGeometry relative="1" as="geometry" />
        </mxCell>
        <mxCell id="JcGwvd_5RNHxMmRcsmv1-67" value="NO" style="edgeStyle=orthogonalEdgeStyle;rounded=0;orthogonalLoop=1;jettySize=auto;html=1;exitX=0;exitY=0.5;exitDx=0;exitDy=0;" parent="1" source="JcGwvd_5RNHxMmRcsmv1-58" target="JcGwvd_5RNHxMmRcsmv1-47" edge="1">
          <mxGeometry relative="1" as="geometry" />
        </mxCell>
        <mxCell id="JcGwvd_5RNHxMmRcsmv1-58" value="USB Connected ?" style="rhombus;whiteSpace=wrap;html=1;fillColor=#dae8fc;strokeColor=#6c8ebf;" parent="1" vertex="1">
          <mxGeometry x="160" y="1060" width="120" height="80" as="geometry" />
        </mxCell>
        <mxCell id="JcGwvd_5RNHxMmRcsmv1-63" value="YES" style="edgeStyle=orthogonalEdgeStyle;rounded=0;orthogonalLoop=1;jettySize=auto;html=1;exitX=1;exitY=0.5;exitDx=0;exitDy=0;" parent="1" source="JcGwvd_5RNHxMmRcsmv1-59" target="JcGwvd_5RNHxMmRcsmv1-60" edge="1">
          <mxGeometry relative="1" as="geometry" />
        </mxCell>
        <mxCell id="JcGwvd_5RNHxMmRcsmv1-64" value="NO" style="edgeStyle=orthogonalEdgeStyle;rounded=0;orthogonalLoop=1;jettySize=auto;html=1;exitX=0;exitY=0.5;exitDx=0;exitDy=0;" parent="1" source="JcGwvd_5RNHxMmRcsmv1-59" target="JcGwvd_5RNHxMmRcsmv1-61" edge="1">
          <mxGeometry relative="1" as="geometry" />
        </mxCell>
        <mxCell id="JcGwvd_5RNHxMmRcsmv1-59" value="iDTC Logs exist ?" style="rhombus;whiteSpace=wrap;html=1;" parent="1" vertex="1">
          <mxGeometry x="240" y="1260" width="120" height="80" as="geometry" />
        </mxCell>
        <mxCell id="JcGwvd_5RNHxMmRcsmv1-62" value="" style="edgeStyle=orthogonalEdgeStyle;rounded=0;orthogonalLoop=1;jettySize=auto;html=1;" parent="1" source="JcGwvd_5RNHxMmRcsmv1-60" target="JcGwvd_5RNHxMmRcsmv1-57" edge="1">
          <mxGeometry relative="1" as="geometry" />
        </mxCell>
        <mxCell id="JcGwvd_5RNHxMmRcsmv1-60" value="Copy process" style="shape=process;whiteSpace=wrap;html=1;backgroundOutline=1;" parent="1" vertex="1">
          <mxGeometry x="320" y="1360" width="120" height="80" as="geometry" />
        </mxCell>
        <mxCell id="JcGwvd_5RNHxMmRcsmv1-61" value="Fail&amp;nbsp;&lt;span style=&quot;background-color: initial;&quot;&gt;Popup&lt;/span&gt;" style="rounded=0;whiteSpace=wrap;html=1;" parent="1" vertex="1">
          <mxGeometry x="160" y="1360" width="120" height="80" as="geometry" />
        </mxCell>
        <mxCell id="lxAm2XhmTh0jFv6chhfo-1" value="" style="edgeStyle=orthogonalEdgeStyle;rounded=0;orthogonalLoop=1;jettySize=auto;html=1;entryX=0;entryY=0.5;entryDx=0;entryDy=0;exitX=1;exitY=0.5;exitDx=0;exitDy=0;" edge="1" parent="1" source="lxAm2XhmTh0jFv6chhfo-6" target="lxAm2XhmTh0jFv6chhfo-4">
          <mxGeometry relative="1" as="geometry">
            <mxPoint x="160" y="760" as="sourcePoint" />
            <mxPoint x="213.99999999999977" y="798" as="targetPoint" />
          </mxGeometry>
        </mxCell>
        <mxCell id="lxAm2XhmTh0jFv6chhfo-2" value="NO" style="edgeStyle=orthogonalEdgeStyle;rounded=0;orthogonalLoop=1;jettySize=auto;html=1;exitX=0.5;exitY=1;exitDx=0;exitDy=0;entryX=0;entryY=0.5;entryDx=0;entryDy=0;" edge="1" parent="1" source="lxAm2XhmTh0jFv6chhfo-4" target="lxAm2XhmTh0jFv6chhfo-5">
          <mxGeometry relative="1" as="geometry">
            <Array as="points">
              <mxPoint x="260" y="840" />
            </Array>
          </mxGeometry>
        </mxCell>
        <mxCell id="lxAm2XhmTh0jFv6chhfo-3" value="YES" style="edgeStyle=orthogonalEdgeStyle;rounded=0;orthogonalLoop=1;jettySize=auto;html=1;exitX=0.5;exitY=0;exitDx=0;exitDy=0;entryX=0;entryY=0.5;entryDx=0;entryDy=0;" edge="1" parent="1" source="lxAm2XhmTh0jFv6chhfo-4" target="lxAm2XhmTh0jFv6chhfo-8">
          <mxGeometry relative="1" as="geometry" />
        </mxCell>
        <mxCell id="lxAm2XhmTh0jFv6chhfo-4" value="USB Connected ?" style="rhombus;whiteSpace=wrap;html=1;" vertex="1" parent="1">
          <mxGeometry x="200" y="720" width="120" height="80" as="geometry" />
        </mxCell>
        <mxCell id="lxAm2XhmTh0jFv6chhfo-5" value="Cannot Find USB." style="rounded=0;whiteSpace=wrap;html=1;fillColor=#f8cecc;strokeColor=#b85450;" vertex="1" parent="1">
          <mxGeometry x="320" y="800" width="120" height="80" as="geometry" />
        </mxCell>
        <mxCell id="lxAm2XhmTh0jFv6chhfo-6" value="iDTC Log Copy&lt;br&gt;Pressed" style="rounded=0;whiteSpace=wrap;html=1;" vertex="1" parent="1">
          <mxGeometry x="40" y="720" width="120" height="80" as="geometry" />
        </mxCell>
        <mxCell id="lxAm2XhmTh0jFv6chhfo-7" value="" style="edgeStyle=orthogonalEdgeStyle;rounded=0;orthogonalLoop=1;jettySize=auto;html=1;" edge="1" parent="1" source="lxAm2XhmTh0jFv6chhfo-8" target="lxAm2XhmTh0jFv6chhfo-11">
          <mxGeometry relative="1" as="geometry" />
        </mxCell>
        <mxCell id="lxAm2XhmTh0jFv6chhfo-8" value="&lt;div&gt;&lt;font style=&quot;font-size: 11px;&quot;&gt;Folder created in USB&lt;/font&gt;&lt;/div&gt;" style="rounded=0;whiteSpace=wrap;html=1;" vertex="1" parent="1">
          <mxGeometry x="320" y="640" width="120" height="80" as="geometry" />
        </mxCell>
        <mxCell id="lxAm2XhmTh0jFv6chhfo-9" value="YES" style="edgeStyle=orthogonalEdgeStyle;rounded=0;orthogonalLoop=1;jettySize=auto;html=1;exitX=0.5;exitY=0;exitDx=0;exitDy=0;entryX=0;entryY=0.5;entryDx=0;entryDy=0;" edge="1" parent="1" source="lxAm2XhmTh0jFv6chhfo-11" target="lxAm2XhmTh0jFv6chhfo-14">
          <mxGeometry relative="1" as="geometry" />
        </mxCell>
        <mxCell id="lxAm2XhmTh0jFv6chhfo-10" value="NO" style="edgeStyle=orthogonalEdgeStyle;rounded=0;orthogonalLoop=1;jettySize=auto;html=1;exitX=0.5;exitY=1;exitDx=0;exitDy=0;entryX=0;entryY=0.5;entryDx=0;entryDy=0;" edge="1" parent="1" source="lxAm2XhmTh0jFv6chhfo-11" target="lxAm2XhmTh0jFv6chhfo-23">
          <mxGeometry relative="1" as="geometry">
            <mxPoint x="600" y="760" as="targetPoint" />
          </mxGeometry>
        </mxCell>
        <mxCell id="lxAm2XhmTh0jFv6chhfo-11" value="Logs exist ?" style="rhombus;whiteSpace=wrap;html=1;" vertex="1" parent="1">
          <mxGeometry x="480" y="640" width="120" height="80" as="geometry" />
        </mxCell>
        <mxCell id="lxAm2XhmTh0jFv6chhfo-25" style="edgeStyle=orthogonalEdgeStyle;rounded=0;orthogonalLoop=1;jettySize=auto;html=1;exitX=1;exitY=0.5;exitDx=0;exitDy=0;entryX=0;entryY=0.5;entryDx=0;entryDy=0;" edge="1" parent="1" source="lxAm2XhmTh0jFv6chhfo-14" target="lxAm2XhmTh0jFv6chhfo-17">
          <mxGeometry relative="1" as="geometry" />
        </mxCell>
        <mxCell id="lxAm2XhmTh0jFv6chhfo-14" value="Copy process" style="shape=process;whiteSpace=wrap;html=1;backgroundOutline=1;" vertex="1" parent="1">
          <mxGeometry x="600" y="560" width="120" height="80" as="geometry" />
        </mxCell>
        <mxCell id="lxAm2XhmTh0jFv6chhfo-15" value="YES" style="edgeStyle=orthogonalEdgeStyle;rounded=0;orthogonalLoop=1;jettySize=auto;html=1;exitX=0.5;exitY=0;exitDx=0;exitDy=0;entryX=0;entryY=0.5;entryDx=0;entryDy=0;" edge="1" parent="1" source="lxAm2XhmTh0jFv6chhfo-17" target="lxAm2XhmTh0jFv6chhfo-19">
          <mxGeometry relative="1" as="geometry" />
        </mxCell>
        <mxCell id="lxAm2XhmTh0jFv6chhfo-16" value="NO" style="edgeStyle=orthogonalEdgeStyle;rounded=0;orthogonalLoop=1;jettySize=auto;html=1;exitX=0.5;exitY=1;exitDx=0;exitDy=0;entryX=0;entryY=0.5;entryDx=0;entryDy=0;" edge="1" parent="1" source="lxAm2XhmTh0jFv6chhfo-17" target="lxAm2XhmTh0jFv6chhfo-18">
          <mxGeometry relative="1" as="geometry" />
        </mxCell>
        <mxCell id="lxAm2XhmTh0jFv6chhfo-17" value="Result Success ?" style="rhombus;whiteSpace=wrap;html=1;" vertex="1" parent="1">
          <mxGeometry x="960" y="440" width="120" height="80" as="geometry" />
        </mxCell>
        <mxCell id="lxAm2XhmTh0jFv6chhfo-18" value="" style="rounded=0;whiteSpace=wrap;html=1;fillColor=#f8cecc;strokeColor=#b85450;" vertex="1" parent="1">
          <mxGeometry x="1080" y="520" width="480" height="160" as="geometry" />
        </mxCell>
        <mxCell id="lxAm2XhmTh0jFv6chhfo-19" value="Finished Copy Log File To USB." style="rounded=0;whiteSpace=wrap;html=1;fillColor=#d5e8d4;strokeColor=#82b366;" vertex="1" parent="1">
          <mxGeometry x="1080" y="360" width="120" height="80" as="geometry" />
        </mxCell>
        <mxCell id="lxAm2XhmTh0jFv6chhfo-20" value="&lt;h1 style=&quot;margin-top: 0px;&quot;&gt;&lt;font style=&quot;font-size: 15px;&quot;&gt;File Copy Failed&lt;/font&gt;&lt;/h1&gt;&lt;p style=&quot;&quot;&gt;&lt;font style=&quot;font-size: 12px;&quot;&gt;An error occurred while copying the file to the USB path. Please check the following:&lt;/font&gt;&lt;/p&gt;&lt;p&gt;1. Ensure the USB device is properly connected.&lt;/p&gt;&lt;p&gt;2. Verify there is enough free space on the USB device.&lt;/p&gt;" style="text;html=1;whiteSpace=wrap;overflow=hidden;rounded=0;" vertex="1" parent="1">
          <mxGeometry x="1090" y="540" width="460" height="120" as="geometry" />
        </mxCell>
        <mxCell id="lxAm2XhmTh0jFv6chhfo-23" value="" style="rounded=0;whiteSpace=wrap;html=1;fillColor=#f8cecc;strokeColor=#b85450;" vertex="1" parent="1">
          <mxGeometry x="600" y="720" width="480" height="160" as="geometry" />
        </mxCell>
        <mxCell id="lxAm2XhmTh0jFv6chhfo-24" value="&lt;h1 style=&quot;margin-top: 0px;&quot;&gt;&lt;font style=&quot;font-size: 15px;&quot;&gt;File Not Found&lt;/font&gt;&lt;/h1&gt;&lt;p style=&quot;&quot;&gt;&lt;span style=&quot;background-color: initial;&quot;&gt;The source file you are trying to copy does not exist. Please check the log system.&lt;/span&gt;&lt;/p&gt;" style="text;html=1;whiteSpace=wrap;overflow=hidden;rounded=0;" vertex="1" parent="1">
          <mxGeometry x="610" y="740" width="460" height="120" as="geometry" />
        </mxCell>
      </root>
    </mxGraphModel>
  </diagram>
</mxfile>
